# xmcd CD database file
#
# Track frame offsets:
#	150
#	34615
#	66892
#
# Disc length: 1229 seconds
#
# Revision: 0
# Processed by: cddbd v1.5.1PL0 Copyright (c) Steve Scherf et al.
# Submitted via: CDex 1.51
#
DISCID=1f04cb03
DTITLE=にじうらじお - ヤマジュン朗読シリーズvol.1
DYEAR=2004
DGENRE=Speech
TTITLE0=湯けむりの中で
TTITLE1=刑事(デカ）を犯れ！
TTITLE2=くそみそテクニック
EXTD=YEAR: 2004
EXTT0=
EXTT1=
EXTT2=
PLAYORDER=
